<svg xmlns="http://www.w3.org/2000/svg" width="112" height="112" viewBox="0 0 160 160" fill="none">
<defs><linearGradient id="body" x1="43" y1="13" x2="103" y2="148" gradientUnits="userSpaceOnUse"><stop offset="0" stop-color="#fff5f7"/><stop offset=".2" stop-color="#ffb7c6"/><stop offset=".48" stop-color="#ff5b79"/><stop offset=".8" stop-color="#c92a51"/><stop offset="1" stop-color="#60192f"/></linearGradient><linearGradient id="chrome" x1="30" y1="18" x2="125" y2="140" gradientUnits="userSpaceOnUse"><stop offset="0" stop-color="#ffffff"/><stop offset=".16" stop-color="#ffffff"/><stop offset=".31" stop-color="#e6e9ee"/><stop offset=".44" stop-color="#ffffff"/><stop offset=".5" stop-color="#ffffff"/><stop offset=".55" stop-color="#b9bec8"/><stop offset=".68" stop-color="#f5f6fa"/><stop offset=".84" stop-color="#ffffff"/><stop offset="1" stop-color="#d8dde5"/></linearGradient><linearGradient id="paper" x1="30" y1="18" x2="125" y2="140" gradientUnits="userSpaceOnUse"><stop offset="0" stop-color="#ffffff"/><stop offset=".45" stop-color="#faf9fa"/><stop offset=".78" stop-color="#e3dfe1"/><stop offset="1" stop-color="#b9b4b7"/></linearGradient><linearGradient id="pink" x1="30" y1="18" x2="125" y2="140" gradientUnits="userSpaceOnUse"><stop offset="0" stop-color="#ffdae1"/><stop offset=".24" stop-color="#ff91a6"/><stop offset=".5" stop-color="#ff5b79"/><stop offset=".8" stop-color="#c72d50"/><stop offset="1" stop-color="#781b39"/></linearGradient><linearGradient id="ink" x1="30" y1="18" x2="125" y2="140" gradientUnits="userSpaceOnUse"><stop offset="0" stop-color="#707075"/><stop offset=".28" stop-color="#37373c"/><stop offset=".56" stop-color="#18181c"/><stop offset=".8" stop-color="#0c0c0f"/><stop offset="1" stop-color="#38383e"/></linearGradient>
<radialGradient id="softbox" cx=".25" cy=".02" r=".95"><stop stop-color="#fff" stop-opacity=".8"/><stop offset=".35" stop-color="#fff" stop-opacity=".12"/><stop offset=".68" stop-color="#fff" stop-opacity="0"/></radialGradient>
<radialGradient id="rimLight" cx=".94" cy=".75" r=".78"><stop stop-color="#fff" stop-opacity=".45"/><stop offset=".35" stop-color="#fff" stop-opacity=".03"/><stop offset="1" stop-color="#fff" stop-opacity="0"/></radialGradient>
<linearGradient id="rim" x1="29" y1="15" x2="122" y2="145" gradientUnits="userSpaceOnUse"><stop stop-color="#fff" stop-opacity=".8"/><stop offset=".3" stop-color="#fff" stop-opacity=".25"/><stop offset=".55" stop-color="#111" stop-opacity=".6"/><stop offset=".8" stop-color="#fff" stop-opacity=".25"/><stop offset="1" stop-color="#fff" stop-opacity=".07"/></linearGradient>
<linearGradient id="reflection" x1="38" y1="17" x2="72" y2="83" gradientUnits="userSpaceOnUse"><stop stop-color="#fff" stop-opacity=".85"/><stop offset=".5" stop-color="#fff" stop-opacity=".08"/><stop offset="1" stop-color="#fff" stop-opacity="0"/></linearGradient>
<filter id="tileShadow" x="0" y="0" width="160" height="160" filterUnits="userSpaceOnUse"><feDropShadow dx="0" dy="5" stdDeviation="4" flood-opacity=".5"/></filter>
<filter id="objectShadow" x="0" y="0" width="160" height="160" filterUnits="userSpaceOnUse"><feDropShadow dx="1" dy="4" stdDeviation="2.5" flood-opacity=".28"/><feDropShadow dx="0" dy="1" stdDeviation=".6" flood-opacity=".3"/></filter>
<filter id="soft"><feGaussianBlur stdDeviation="2.2"/></filter>
<filter id="fine"><feGaussianBlur stdDeviation=".6"/></filter>
<clipPath id="tile"><path d="M53 17C27 17 18 26 18 52V103C18 129 27 138 53 138H107C133 138 142 129 142 103V52C142 26 133 17 107 17Z"/></clipPath></defs>
<g filter="url(#tileShadow)">
 <path d="M52 12C22 12 12 22 12 52V106C12 136 22 146 52 146H108C138 146 148 136 148 106V52C148 22 138 12 108 12Z" transform="translate(0 3)" fill="#60192f"/>
 <path d="M52 12C22 12 12 22 12 52V106C12 136 22 146 52 146H108C138 146 148 136 148 106V52C148 22 138 12 108 12Z" fill="url(#body)" stroke="url(#rim)" stroke-width="1"/>
 <path d="M53 17C27 17 18 26 18 52V103C18 129 27 138 53 138H107C133 138 142 129 142 103V52C142 26 133 17 107 17Z" fill="url(#body)"/>
 <g clip-path="url(#tile)">
  <path d="M53 17C27 17 18 26 18 52V103C18 129 27 138 53 138H107C133 138 142 129 142 103V52C142 26 133 17 107 17Z" fill="url(#softbox)"/>
  <path d="M53 17C27 17 18 26 18 52V103C18 129 27 138 53 138H107C133 138 142 129 142 103V52C142 26 133 17 107 17Z" fill="url(#rimLight)"/>
  <path d="M19 106Q24 133 52 135H111Q134 134 140 111" stroke="#000" stroke-opacity=".3" stroke-width="7" filter="url(#soft)"/>
  <path d="M22 76V47Q22 22 49 21H108Q129 21 137 38" stroke="#fff" stroke-opacity=".5" stroke-width="3" filter="url(#soft)"/>
  <path d="M22 73V49Q22 25 45 23" stroke="#fff" stroke-opacity=".5" stroke-width="1"/>
  <path d="M138 73V105Q138 126 119 133" stroke="#fff" stroke-opacity=".23" stroke-width="2" filter="url(#fine)"/>
  <path d="M22 48Q24 22 51 22H111Q127 22 135 34C107 26 64 39 24 60Z" fill="url(#reflection)" opacity=".6"/>
 </g>
 <path d="M53 17C27 17 18 26 18 52V103C18 129 27 138 53 138H107C133 138 142 129 142 103V52C142 26 133 17 107 17Z" stroke="url(#rim)" stroke-width=".8"/>
</g>

<g transform="rotate(36 80 78)" filter="url(#objectShadow)">
 <rect x="58" y="32" width="41" height="57" rx="20.5" stroke="#767279" stroke-width="13" transform="translate(0 2)"/>
 <rect x="58" y="32" width="41" height="57" rx="20.5" stroke="#e2e2e5" stroke-width="13"/>
 <rect x="58" y="32" width="41" height="57" rx="20.5" stroke="url(#chrome)" stroke-width="10"/>
 <path d="M59 56V52C59 41 67 33 78 33H80" stroke="#fff" stroke-width="2.1" stroke-linecap="round"/>
 <path d="M96 51V67C96 77 91 83 84 85" stroke="#c4c4c9" stroke-width="1.3" stroke-linecap="round"/>
 <rect x="58" y="72" width="41" height="54" rx="20.5" stroke="#767279" stroke-width="13" transform="translate(0 2)"/>
 <rect x="58" y="72" width="41" height="54" rx="20.5" stroke="#e2e2e5" stroke-width="13"/>
 <rect x="58" y="72" width="41" height="54" rx="20.5" stroke="url(#chrome)" stroke-width="10"/>
 <path d="M59 100V93C59 83 65 76 72 74" stroke="#fff" stroke-width="2" stroke-linecap="round"/>
 <path d="M65 119C78 132 97 120 97 106" stroke="#fff" stroke-opacity=".7" stroke-width="1.4" stroke-linecap="round"/>
 <path d="M98 62V69C98 78 92 86 82 88" stroke="#c8c8ce" stroke-width="13"/>
 <path d="M98 60V68C98 78 92 85 82 87" stroke="url(#chrome)" stroke-width="10"/>
 <path d="M96 61V68C96 76 91 82 85 84" stroke="#fff" stroke-opacity=".75" stroke-width="1.7" stroke-linecap="round"/>
</g>
<path d="M41 19Q70 14 109 19" stroke="#fff" stroke-opacity=".8" stroke-width="1.4" stroke-linecap="round"/>
<path d="M49 141H105" stroke="#fff" stroke-opacity=".13" stroke-width=".7" stroke-linecap="round"/>
</svg>
