<svg xmlns="http://www.w3.org/2000/svg" width="640" height="440" viewBox="0 0 640 440">
<rect width="640" height="440" fill="oklch(0.930652487 0.005463699 95.102982446)"/><rect x="31" y="28" width="578" height="384" rx="9" fill="oklch(0.975795373 0.005400033 95.099078404)"/><path d="M31 71h578" stroke="oklch(0.87597784 0.008440705 91.492182741)"/><text x="54" y="55" font-family="Arial,sans-serif" font-size="13" font-weight="700" fill="oklch(0.308101232 0.005265221 106.704667305)">TYPE / NOTES</text><text x="507" y="55" font-family="Arial,sans-serif" font-size="11" fill="oklch(0.559468658 0.011221086 87.512009073)">ISSUE 08</text><text x="50" y="194" font-family="Georgia,serif" font-size="132" fill="oklch(0.263359742 0.005468856 106.769282292)">Aa</text><text x="292" y="194" font-family="Georgia,serif" font-size="132" font-style="italic" fill="oklch(0.619102036 0.149497576 37.988526151)">Bb</text><path d="M52 221h536" stroke="oklch(0.263359742 0.005468856 106.769282292)" stroke-width="2"/><text x="54" y="265" font-family="Georgia,serif" font-size="31" fill="oklch(0.266804374 0.009039483 106.996914156)">The shape of a thought.</text><text x="54" y="293" font-family="Arial,sans-serif" font-size="12" fill="oklch(0.509883998 0.011113367 93.683088093)">An exploration of form, rhythm and visual language.</text><g fill="oklch(0.626932997 0.012301785 89.772681453)"><rect x="54" y="324" width="229" height="4" rx="2"/><rect x="54" y="337" width="199" height="4" rx="2"/><rect x="54" y="350" width="215" height="4" rx="2"/><rect x="322" y="324" width="238" height="4" rx="2"/><rect x="322" y="337" width="194" height="4" rx="2"/><rect x="322" y="350" width="226" height="4" rx="2"/></g><circle cx="551" cy="269" r="30" fill="oklch(0.619102036 0.149497576 37.988526151)"/>
</svg>
